# xmcd CD database file
#
# Track frame offsets:
#	300
#	15907
#	37446
#	51736
#	74278
#	95381
#	123226
#	139855
#	188991
#	207757
#	225208
#
# Disc length: 3313 seconds
#
# Revision: 3
# Processed by: cddbd v1.5.2PL0 Copyright (c) Steve Scherf et al.
# Submitted via: CDex 1.70beta2
#
DISCID=9a0ced0b
DTITLE=Various Artist - JVC DTS-CD
DYEAR=2004
DGENRE=Jazz
TTITLE0=BNL - Pinch Me
TTITLE1=Neil Young - Heart of Gold
TTITLE2=Beethoven Symphony #9 (movement 2)
TTITLE3=ELP - Lucky Man
TTITLE4=Fourplay - Moonjogger
TTITLE5=The Doors - Love Her Madly
TTITLE6=Dvorak - Symphony #9 (Movement 4)
TTITLE7=Grateful Dead - Sugar Magnolia
TTITLE8=Foreigner - Feels like the First Time
TTITLE9=The Coors - Breathless
TTITLE10=Stone Temple Pilots
EXTD=YEAR: 2004
EXTT0=
EXTT1=
EXTT2=
EXTT3=
EXTT4=
EXTT5=
EXTT6=
EXTT7=
EXTT8=
EXTT9=
EXTT10=
PLAYORDER=
